<svg width="39" height="51" viewBox="0 0 39 51" fill="none" xmlns="http://www.w3.org/2000/svg">
<path fill-rule="evenodd" clip-rule="evenodd" d="M35.0972 7.80555C37.2527 7.80555 39 6.05822 39 3.90278C39 1.74733 37.2527 0 35.0972 0C32.9418 0 31.1944 1.74733 31.1944 3.90278C31.1944 4.58051 31.3672 5.2179 31.6711 5.77331C31.2744 5.93817 30.8691 6.12417 30.4582 6.32766C28.9861 7.05667 27.3874 8.03821 25.7751 9.16762C24.5345 10.0366 23.2788 10.9982 22.0586 12.0081C19.0483 13.0251 15.8265 15.0423 12.9627 17.9062C6.60828 24.2605 4.42236 32.3771 8.08027 36.035C10.6111 38.5659 15.2764 38.2992 20.0157 35.79C18.3146 37.7326 16.2931 39.6372 14.2064 41.2116C11.8778 42.9685 9.54539 44.2553 7.53497 44.7781C6.96428 43.3305 5.55316 42.3061 3.90278 42.3061C1.74733 42.3061 0 44.0534 0 46.2089C0 48.3643 1.74733 50.1116 3.90278 50.1116C6.02101 50.1116 7.7451 48.4241 7.804 46.3201C10.1627 45.735 12.7375 44.2755 15.1467 42.4578C18.1961 40.157 21.1075 37.1853 23.1673 34.353C23.4628 33.9466 23.7421 33.5413 24.0027 33.1396C24.7546 32.5318 25.493 31.8687 26.2091 31.1526C32.5635 24.7983 34.7494 16.6817 31.0915 13.0238C29.7384 11.6707 27.7751 11.1172 25.5167 11.2786C25.9018 10.9929 26.2871 10.715 26.6707 10.4462C28.2389 9.34775 29.7687 8.41117 31.151 7.72662C31.7212 7.44426 32.2573 7.20929 32.7538 7.02394C33.4064 7.5147 34.2178 7.80555 35.0972 7.80555ZM25.9295 29.1875C28.4853 26.396 30.1723 23.3637 30.8975 20.6711C31.7106 17.652 31.2536 15.3936 29.9876 14.1277C28.7216 12.8617 26.4632 12.4047 23.4442 13.2178C23.2406 13.2726 23.0351 13.3329 22.8279 13.3987C21.0111 14.917 19.2846 16.5383 17.8314 18.1016C16.6011 19.4251 15.5815 20.6913 14.8701 21.8052C14.14 22.9482 13.8043 23.8247 13.7907 24.3947C13.7845 24.6543 13.846 24.8006 13.92 24.8934C13.9975 24.9904 14.1583 25.1157 14.5071 25.2013C15.2413 25.3814 16.5433 25.3207 18.6193 24.7936C20.7638 24.2492 22.4444 24.123 23.6841 24.4156C24.3154 24.5647 24.857 24.8284 25.2784 25.2236C25.7038 25.6227 25.9681 26.12 26.0953 26.6701C26.2721 27.4345 26.1844 28.2958 25.9295 29.1875ZM17.723 15.9606C16.4792 16.8127 15.2449 17.8316 14.0665 19.01C11.0472 22.0294 9.07472 25.4155 8.27426 28.3877C7.46118 31.4068 7.91817 33.6651 9.18415 34.9311C10.4501 36.1971 12.7085 36.6541 15.7276 35.841C17.9701 35.2371 20.4482 33.9659 22.8267 32.0814C23.3701 31.2232 23.8052 30.4061 24.1122 29.6582C24.5863 28.5033 24.7119 27.6169 24.5743 27.0218C24.5095 26.7415 24.3876 26.5284 24.2103 26.3622C24.0291 26.1921 23.7516 26.0356 23.3253 25.935C22.4497 25.7282 21.0607 25.7844 19.0035 26.3067C16.8778 26.8464 15.2604 26.9935 14.1351 26.7174C13.554 26.5748 13.0501 26.306 12.6999 25.8672C12.3463 25.4241 12.2173 24.8929 12.23 24.3576C12.2543 23.338 12.794 22.1554 13.5544 20.9648C14.3335 19.7451 15.4197 18.4032 16.688 17.0388C17.0201 16.6814 17.3658 16.3215 17.723 15.9606Z" fill="black"/>
</svg>
